<svg width="1324" height="245" viewBox="0 0 1324 245" fill="none" xmlns="http://www.w3.org/2000/svg">
<path d="M812.953 102.68V108.463L813.085 120.029C813.085 120.029 813.085 121.387 813.085 124.103C813.085 133.916 812.953 139.787 812.69 141.714C811.989 148.373 809.843 153.587 806.25 157.354C799.329 164.714 788.858 168.394 774.839 168.394C760.382 168.394 750.13 164.583 744.085 156.96C740.405 152.316 738.565 145.438 738.565 136.326C738.565 135.537 738.696 130.674 738.959 121.737C739.134 115.779 739.222 111.004 739.222 107.411V102.286C739.222 97.5542 737.951 95.1885 735.41 95.1885C734.797 95.1885 733.833 95.3638 732.519 95.7142C731.205 95.9771 730.153 96.1085 729.365 96.1085C727.349 96.1085 725.641 95.32 724.239 93.7428C722.925 92.0781 722.268 90.019 722.268 87.5657C722.268 84.5866 723.188 82.2209 725.028 80.4685C726.955 78.7162 729.452 77.84 732.519 77.84C734.447 77.84 737.338 78.059 741.193 78.4971C745.049 78.9352 747.94 79.1542 749.868 79.1542C751.532 79.1542 753.986 78.9352 757.228 78.4971C760.557 78.059 763.054 77.84 764.719 77.84C767.348 77.84 769.45 78.7162 771.028 80.4685C772.605 82.2209 773.393 84.5866 773.393 87.5657C773.393 92.8228 771.597 95.4514 768.005 95.4514H766.69C766.252 95.3638 765.683 95.32 764.982 95.32C763.492 95.32 762.616 96.24 762.353 98.08C762.353 98.1676 762.353 99.7009 762.353 102.68V132.777C762.353 138.823 763.361 143.116 765.376 145.657C767.479 148.11 770.984 149.337 775.89 149.337C780.797 149.337 784.346 148.067 786.536 145.526C788.814 142.897 789.953 138.648 789.953 132.777V102.68C789.953 99.4381 789.778 97.4228 789.428 96.6343C789.077 95.7581 788.289 95.32 787.062 95.32C786.449 95.32 785.923 95.3638 785.485 95.4514H784.17C780.578 95.4514 778.782 92.779 778.782 87.4342C778.782 84.5428 779.57 82.2209 781.148 80.4685C782.812 78.7162 784.959 77.84 787.588 77.84C789.252 77.84 791.749 78.059 795.079 78.4971C798.496 78.9352 801.037 79.1542 802.702 79.1542C804.629 79.1542 807.521 78.9352 811.376 78.4971C815.231 78.059 818.123 77.84 820.05 77.84C823.029 77.84 825.395 78.7162 827.148 80.4685C828.988 82.2209 829.908 84.5866 829.908 87.5657C829.908 90.1066 829.207 92.1657 827.805 93.7428C826.49 95.32 824.738 96.1085 822.548 96.1085C821.847 96.1085 820.839 95.9771 819.525 95.7142C818.298 95.3638 817.378 95.1885 816.765 95.1885C814.224 95.1885 812.953 97.6857 812.953 102.68Z" fill="black"/>
<path d="M669.438 76C678.638 76 686.304 79.1105 692.438 85.3314C693.226 80.1619 695.855 77.5771 700.323 77.5771C705.756 77.5771 708.472 80.2057 708.472 85.4629C708.472 86.3391 708.297 88.0914 707.946 90.72C707.42 94.6629 707.158 97.3352 707.158 98.7372C707.158 100.314 707.245 101.497 707.42 102.286C707.596 105.09 707.683 106.667 707.683 107.017C707.683 109.295 706.676 111.223 704.66 112.8C702.645 114.29 700.06 115.034 696.906 115.034C691.824 115.034 688.758 112.537 687.706 107.543C686.655 102.549 685.121 99.1314 683.106 97.2914C681.178 95.3638 678.068 94.4 673.775 94.4C668.079 94.4 663.655 97.0724 660.5 102.417C657.434 107.674 655.9 115.166 655.9 124.891C655.9 133.128 657.39 139.568 660.369 144.211C663.436 148.768 667.641 151.046 672.986 151.046C676.403 151.046 679.207 150.082 681.398 148.154C683.676 146.139 684.815 143.642 684.815 140.663C684.815 136.983 683.281 135.143 680.215 135.143C680.039 135.143 679.777 135.143 679.426 135.143C679.076 135.23 678.769 135.274 678.506 135.274C677.104 135.45 676.316 135.537 676.14 135.537C674.388 135.537 672.898 134.792 671.672 133.303C670.445 131.726 669.832 129.798 669.832 127.52C669.832 124.891 670.708 122.789 672.46 121.211C674.213 119.634 676.491 118.846 679.295 118.846C681.135 118.846 683.895 119.109 687.575 119.634C691.342 120.072 694.19 120.291 696.118 120.291C699.009 120.291 702.207 120.072 705.712 119.634C708.516 119.284 710.443 119.109 711.495 119.109C714.298 119.109 716.533 119.985 718.198 121.737C719.95 123.402 720.826 125.68 720.826 128.571C720.826 131.112 720.213 133.259 718.986 135.011C717.759 136.676 716.226 137.509 714.386 137.509L711.232 137.246C708.866 137.246 707.683 139.217 707.683 143.16C707.683 144.825 707.727 146.577 707.815 148.417L708.078 154.069C708.165 155.996 708.209 157.836 708.209 159.589C708.209 165.459 704.967 168.394 698.483 168.394C692.35 168.394 689.283 166.248 689.283 161.954V161.166C683.238 165.985 676.359 168.394 668.649 168.394C661.902 168.394 655.55 166.642 649.592 163.137C643.634 159.545 639.297 154.901 636.58 149.206C633.076 141.933 631.323 133.478 631.323 123.84C631.323 109.12 634.74 97.4667 641.575 88.88C648.409 80.2933 657.697 76 669.438 76Z" fill="black"/>
<path d="M569.497 86.6457L592.628 142.897V103.994C592.628 98.1238 591.489 95.1885 589.211 95.1885C588.598 95.1885 587.678 95.3638 586.451 95.7142C585.312 95.9771 584.436 96.1085 583.822 96.1085C581.982 96.1085 580.405 95.2762 579.091 93.6114C577.864 91.9466 577.251 89.8876 577.251 87.4342C577.251 84.5428 578.083 82.2209 579.748 80.4685C581.413 78.7162 583.603 77.84 586.319 77.84C587.721 77.84 590.131 78.059 593.548 78.4971C596.965 78.9352 599.988 79.1542 602.617 79.1542C604.982 79.1542 607.742 78.979 610.897 78.6285C615.628 78.1028 618.563 77.84 619.702 77.84C622.506 77.84 624.784 78.7162 626.537 80.4685C628.289 82.2209 629.165 84.5428 629.165 87.4342C629.165 89.8876 628.464 91.9466 627.062 93.6114C625.66 95.2762 623.952 96.1085 621.937 96.1085C621.148 96.1085 620.097 95.9771 618.782 95.7142C617.468 95.3638 616.46 95.1885 615.76 95.1885C614.007 95.1885 612.868 96.2838 612.342 98.4743C612.167 99.3504 612.08 101.19 612.08 103.994V157.486C612.08 163.269 609.714 166.16 604.982 166.16C604.106 166.16 602.748 166.116 600.908 166.029C599.156 165.853 597.841 165.766 596.965 165.766C596.878 165.766 594.731 165.853 590.525 166.029C590.525 166.029 589.561 166.029 587.634 166.029C585.093 166.029 583.209 165.415 581.982 164.189C581.281 163.488 580.274 161.604 578.959 158.537L553.594 100.709V140.4C553.594 146.358 554.733 149.337 557.011 149.337C557.624 149.337 558.544 149.206 559.771 148.943C561.085 148.592 562.049 148.417 562.662 148.417C564.502 148.417 566.036 149.249 567.262 150.914C568.577 152.579 569.234 154.638 569.234 157.091C569.234 163.488 566.167 166.686 560.034 166.686C558.281 166.686 555.39 166.423 551.36 165.897C548.643 165.547 545.927 165.371 543.211 165.371C540.933 165.371 537.866 165.59 534.011 166.029C530.156 166.467 527.702 166.686 526.651 166.686C520.255 166.686 517.057 163.488 517.057 157.091C517.057 154.638 517.714 152.579 519.028 150.914C520.43 149.249 522.139 148.417 524.154 148.417C524.942 148.417 525.994 148.592 527.308 148.943C528.71 149.206 529.761 149.337 530.462 149.337C532.828 149.337 534.011 146.358 534.011 140.4V103.994C534.011 98.1238 532.828 95.1885 530.462 95.1885C529.761 95.1885 528.71 95.3638 527.308 95.7142C525.994 95.9771 524.942 96.1085 524.154 96.1085C522.139 96.1085 520.43 95.2762 519.028 93.6114C517.714 91.9466 517.057 89.8876 517.057 87.4342C517.057 84.5428 517.933 82.2209 519.685 80.4685C521.438 78.7162 523.716 77.84 526.52 77.84C528.36 77.84 531.032 78.059 534.537 78.4971C538.041 78.9352 540.801 79.1542 542.817 79.1542C544.481 79.1542 547.329 78.979 551.36 78.6285C553.2 78.5409 555.302 78.3657 557.668 78.1028C558.72 77.9276 559.859 77.84 561.085 77.84C563.451 77.84 565.291 78.76 566.605 80.6C567.131 81.3009 568.095 83.3162 569.497 86.6457Z" fill="black"/>
<path d="M466.839 94.4C463.948 94.4 462.02 94.6628 461.056 95.1885C459.742 95.9771 459.085 97.7295 459.085 100.446V107.806C459.085 109.295 459.26 110.434 459.61 111.223C460.049 111.924 461.1 112.274 462.765 112.274C466.62 112.274 468.548 110.872 468.548 108.069V106.36C468.46 105.834 468.416 105.177 468.416 104.389C468.416 100.709 470.563 98.8685 474.856 98.8685C479.325 98.8685 481.559 101.103 481.559 105.571C481.559 106.798 481.471 108.156 481.296 109.646C480.946 112.537 480.77 115.209 480.77 117.663C480.77 119.941 480.946 122.832 481.296 126.337C481.647 129.842 481.822 132.295 481.822 133.697C481.822 138.867 479.5 141.451 474.856 141.451C470.475 141.451 468.285 139.217 468.285 134.749C468.285 134.31 468.285 134.091 468.285 134.091C468.285 133.653 468.372 132.602 468.548 130.937C468.548 128.834 466.664 127.783 462.896 127.783C460.355 127.783 459.085 129.185 459.085 131.989V141.846C459.085 144.912 459.61 147.015 460.662 148.154C461.801 149.206 463.86 149.731 466.839 149.731H474.462C480.069 149.731 483.969 149.249 486.159 148.286C488.437 147.322 489.576 145.613 489.576 143.16C489.576 141.933 489.445 140.488 489.182 138.823C488.919 137.07 488.788 135.625 488.788 134.486C488.788 131.244 489.708 128.703 491.548 126.863C493.388 125.023 495.885 124.103 499.039 124.103C505.435 124.103 508.633 127.608 508.633 134.617C508.633 136.895 508.502 139.305 508.239 141.846C507.801 146.051 507.582 148.68 507.582 149.731C507.582 150.695 507.801 152.579 508.239 155.383C508.502 157.048 508.633 158.756 508.633 160.509C508.633 164.627 506.049 166.686 500.879 166.686C499.214 166.686 496.454 166.554 492.599 166.291C486.203 165.853 475.995 165.547 461.976 165.371C461.976 165.371 458.077 165.371 450.279 165.371C445.898 165.371 442.262 165.503 439.37 165.766L429.382 166.686C429.294 166.686 429.119 166.729 428.856 166.817C428.593 166.817 428.374 166.817 428.199 166.817C425.483 166.817 423.249 165.897 421.496 164.057C419.831 162.217 418.999 159.895 418.999 157.091C418.999 154.638 419.656 152.579 420.97 150.914C422.372 149.249 424.125 148.417 426.228 148.417C426.929 148.417 427.98 148.592 429.382 148.943C430.784 149.206 431.791 149.337 432.405 149.337C434.77 149.337 435.953 146.358 435.953 140.4V103.994C435.953 98.1238 434.77 95.1885 432.405 95.1885C431.879 95.1885 430.828 95.3638 429.25 95.7142C428.111 95.9771 427.104 96.1085 426.228 96.1085C424.212 96.1085 422.504 95.2762 421.102 93.6114C419.7 91.9466 418.999 89.8876 418.999 87.4342C418.999 81.0381 422.197 77.84 428.593 77.84C430.083 77.84 433.106 78.0152 437.662 78.3657C444.496 78.8914 451.111 79.1542 457.508 79.1542C458.121 79.1542 463.378 79.0228 473.279 78.76C480.464 78.5847 485.195 78.4095 487.473 78.2342C491.241 77.9714 495.184 77.84 499.302 77.84C504.209 77.84 506.662 79.9866 506.662 84.28C506.662 85.6819 506.487 87.7409 506.136 90.4571C505.873 93.1733 505.742 95.2323 505.742 96.6343C505.742 98.0362 505.917 100.051 506.268 102.68C506.706 105.221 506.925 107.149 506.925 108.463C506.925 111.004 505.961 113.15 504.033 114.903C502.193 116.655 499.871 117.531 497.068 117.531C490.496 117.531 487.21 114.158 487.21 107.411C487.21 106.272 487.386 104.695 487.736 102.68C488.174 100.665 488.393 99.1752 488.393 98.2114C488.393 96.2838 487.386 95.1009 485.37 94.6628C484.669 94.4876 482.83 94.4 479.85 94.4H466.839Z" fill="black"/>
<path d="M371.634 136.72C369.269 136.632 368.086 137.947 368.086 140.663V144.869C368.086 147.848 369.4 149.337 372.029 149.337C373.08 149.337 374.394 149.206 375.971 148.943C377.899 148.592 379.52 148.417 380.834 148.417C383.025 148.417 384.777 149.206 386.091 150.783C387.406 152.36 388.063 154.463 388.063 157.091C388.063 159.983 387.187 162.305 385.434 164.057C383.682 165.81 381.404 166.686 378.6 166.686C376.147 166.686 372.51 166.467 367.691 166.029C362.872 165.591 359.236 165.371 356.783 165.371C353.015 165.371 349.861 165.503 347.32 165.766L340.88 166.423C339.128 166.598 337.945 166.686 337.331 166.686C334.528 166.686 332.25 165.81 330.497 164.057C328.832 162.305 328 159.983 328 157.091C328 154.638 328.657 152.579 329.971 150.914C331.373 149.25 333.082 148.417 335.097 148.417C335.886 148.417 336.981 148.592 338.383 148.943C339.785 149.206 340.792 149.337 341.406 149.337C343.771 149.337 344.954 146.358 344.954 140.4V103.994C344.954 101.191 344.867 99.3943 344.691 98.6058C344.253 96.3277 343.158 95.1886 341.406 95.1886C340.705 95.1886 339.653 95.3639 338.251 95.7143C336.937 95.9772 335.886 96.1086 335.097 96.1086C333.082 96.1086 331.373 95.2762 329.971 93.6115C328.657 91.9467 328 89.8877 328 87.4343C328 84.5429 328.876 82.221 330.629 80.4686C332.381 78.6286 334.659 77.7086 337.463 77.7086C337.55 77.7086 337.682 77.7086 337.857 77.7086C338.032 77.7962 338.208 77.8401 338.383 77.8401C340.486 77.8401 343.684 78.0591 347.977 78.4972C352.27 78.9353 355.512 79.1543 357.703 79.1543C361.909 79.1543 366.509 78.9791 371.503 78.6286C377.811 78.1905 381.404 77.9715 382.28 77.9715C391.83 77.9715 399.541 80.6877 405.411 86.12C411.37 91.4648 414.349 98.5181 414.349 107.28C414.349 116.392 411.282 123.621 405.149 128.966C399.103 134.311 390.823 136.983 380.309 136.983C379.432 136.983 377.768 136.939 375.314 136.851L371.634 136.72ZM368.086 114.509C368.086 116.962 368.305 118.495 368.743 119.109C369.181 119.634 370.364 119.941 372.291 120.029L374.394 120.16C384.733 120.773 389.903 116.699 389.903 107.937C389.903 99.5258 385.259 95.32 375.971 95.32C373.693 95.32 372.116 95.4515 371.24 95.7143C369.663 96.1524 368.699 97.2039 368.349 98.8686C368.173 99.7448 368.086 101.059 368.086 102.811V114.509Z" fill="black"/>
<path d="M1283.54 75C1292.65 75 1299.83 78.1105 1305.09 84.3314C1305.18 81.2648 1305.75 79.1619 1306.8 78.0229C1307.94 76.8838 1309.87 76.3143 1312.58 76.3143C1318.19 76.3143 1320.99 78.68 1320.99 83.4114C1320.99 84.7257 1320.86 86.6533 1320.6 89.1943C1320.34 91.7352 1320.21 93.6629 1320.21 94.9771C1320.21 95.7657 1320.29 96.9048 1320.47 98.3943C1320.64 99.8838 1320.73 101.023 1320.73 101.811V102.469C1320.73 107.638 1317.75 110.223 1311.79 110.223C1306.8 110.223 1303.82 108.12 1302.86 103.914L1302.2 101.154C1300.89 95.4591 1296.24 92.6114 1288.27 92.6114C1280.73 92.6114 1276.97 95.24 1276.97 100.497C1276.97 103.213 1277.75 105.053 1279.33 106.017C1281 106.981 1285.11 108.12 1291.69 109.434C1302.73 111.625 1310.74 114.91 1315.74 119.291C1320.73 123.672 1323.23 129.63 1323.23 137.166C1323.23 146.015 1320.21 153.288 1314.16 158.983C1308.11 164.59 1300.4 167.394 1291.03 167.394C1283.23 167.394 1275.74 164.59 1268.55 158.983C1268.29 163.89 1265.66 166.343 1260.67 166.343C1254.97 166.343 1252.12 163.539 1252.12 157.931C1252.12 156.091 1252.26 154.12 1252.52 152.017C1252.87 149.213 1253.05 147.067 1253.05 145.577C1253.05 144.613 1252.91 143.124 1252.65 141.109C1252.48 139.093 1252.39 137.604 1252.39 136.64C1252.39 134.362 1253.31 132.522 1255.15 131.12C1257.08 129.63 1259.53 128.886 1262.51 128.886C1265.84 128.886 1268.2 129.63 1269.61 131.12C1271.09 132.522 1272.15 135.194 1272.76 139.137C1273.72 145.709 1278.72 148.994 1287.74 148.994C1291.42 148.994 1294.36 148.118 1296.55 146.366C1298.74 144.613 1299.83 142.335 1299.83 139.531C1299.83 136.465 1298.87 134.318 1296.94 133.091C1295.01 131.777 1290.41 130.244 1283.14 128.491L1274.47 126.389C1270.7 125.425 1267.2 123.716 1263.95 121.263C1257.65 116.531 1254.49 110.179 1254.49 102.206C1254.49 94.1448 1257.16 87.6171 1262.51 82.6229C1267.94 77.541 1274.95 75 1283.54 75Z" fill="black"/>
<path d="M1164.71 148.337C1167.08 148.337 1168.26 145.358 1168.26 139.4V102.994C1168.26 97.1238 1167.08 94.1885 1164.71 94.1885C1164.01 94.1885 1162.96 94.3638 1161.56 94.7142C1160.24 94.9771 1159.19 95.1085 1158.4 95.1085C1156.39 95.1085 1154.68 94.2762 1153.28 92.6114C1151.96 90.9466 1151.31 88.8876 1151.31 86.4342C1151.31 83.5428 1152.18 81.2209 1153.94 79.4685C1155.69 77.7162 1157.97 76.84 1160.77 76.84C1162.26 76.84 1165.33 77.1028 1169.97 77.6285C1173.04 77.979 1175.97 78.1542 1178.78 78.1542C1179.83 78.1542 1182.28 78.0228 1186.14 77.76L1195.73 77.1028C1198.27 76.9276 1200.77 76.84 1203.22 76.84C1219.08 76.84 1230.43 83.5428 1237.26 96.9485C1241.12 104.484 1243.04 112.589 1243.04 121.263C1243.04 129.937 1241.2 137.91 1237.52 145.183C1233.84 152.455 1228.94 157.8 1222.8 161.217C1217.37 164.196 1210.89 165.686 1203.35 165.686C1200.37 165.686 1197.83 165.598 1195.73 165.423L1186.14 164.634C1184.03 164.459 1181.58 164.371 1178.78 164.371C1175.27 164.371 1172.34 164.503 1169.97 164.766L1164.71 165.291C1162.7 165.554 1161.38 165.686 1160.77 165.686C1157.97 165.686 1155.69 164.809 1153.94 163.057C1152.18 161.305 1151.31 158.983 1151.31 156.091C1151.31 153.638 1151.96 151.579 1153.28 149.914C1154.68 148.249 1156.39 147.417 1158.4 147.417C1159.19 147.417 1160.29 147.592 1161.69 147.943C1163.09 148.206 1164.1 148.337 1164.71 148.337ZM1198.88 93.6628C1195.9 93.6628 1193.89 94.1447 1192.84 95.1085C1191.87 95.9847 1191.39 97.7809 1191.39 100.497V141.897C1191.39 144.613 1191.87 146.453 1192.84 147.417C1193.89 148.381 1195.9 148.863 1198.88 148.863C1203.7 148.863 1208.04 146.891 1211.9 142.949C1216.36 138.305 1218.6 131.427 1218.6 122.314C1218.6 112.063 1216.36 104.484 1211.9 99.5771C1209.88 97.3866 1207.69 95.8095 1205.32 94.8457C1203.31 94.0571 1201.16 93.6628 1198.88 93.6628Z" fill="black"/>
<path d="M1103.68 167.394C1090.36 167.394 1080.07 163.364 1072.79 155.303C1065.52 147.242 1061.88 135.808 1061.88 121C1061.88 106.718 1065.48 95.5029 1072.66 87.3543C1079.93 79.1181 1089.92 75 1102.63 75C1115.95 75 1126.33 78.9867 1133.78 86.96C1141.22 94.9333 1144.95 106.061 1144.95 120.343C1144.95 135.15 1141.31 146.716 1134.04 155.04C1126.85 163.276 1116.73 167.394 1103.68 167.394ZM1103.55 93.4C1092.16 93.4 1086.46 102.688 1086.46 121.263C1086.46 130.112 1087.56 136.684 1089.75 140.977C1092.46 146.322 1097.02 148.994 1103.42 148.994C1114.72 148.994 1120.37 139.97 1120.37 121.92C1120.37 111.931 1119.01 104.703 1116.3 100.234C1113.67 95.6781 1109.42 93.4 1103.55 93.4Z" fill="black"/>
<path d="M1012.68 167.394C999.363 167.394 989.068 163.364 981.795 155.303C974.523 147.242 970.887 135.808 970.887 121C970.887 106.718 974.479 95.5029 981.664 87.3543C988.936 79.1181 998.925 75 1011.63 75C1024.95 75 1035.33 78.9867 1042.78 86.96C1050.23 94.9333 1053.95 106.061 1053.95 120.343C1053.95 135.15 1050.31 146.716 1043.04 155.04C1035.86 163.276 1025.74 167.394 1012.68 167.394ZM1012.55 93.4C1001.16 93.4 995.464 102.688 995.464 121.263C995.464 130.112 996.559 136.684 998.75 140.977C1001.47 146.322 1006.02 148.994 1012.42 148.994C1023.72 148.994 1029.37 139.97 1029.37 121.92C1029.37 111.931 1028.01 104.703 1025.3 100.234C1022.67 95.6781 1018.42 93.4 1012.55 93.4Z" fill="black"/>
<path d="M916.086 130.726V138.349L916.217 142.817C916.217 144.219 916.349 145.314 916.611 146.103C917.05 147.592 918.232 148.337 920.16 148.337C921.124 148.337 922.526 148.206 924.366 147.943C926.206 147.592 927.608 147.417 928.571 147.417C933.741 147.417 936.326 150.396 936.326 156.354C936.326 159.158 935.406 161.436 933.566 163.189C931.813 164.853 929.448 165.686 926.469 165.686C924.19 165.686 920.773 165.467 916.217 165.029C911.749 164.591 908.375 164.371 906.097 164.371C901.629 164.371 898.08 164.503 895.451 164.766C889.406 165.379 886.032 165.686 885.331 165.686C882.528 165.686 880.25 164.81 878.497 163.057C876.832 161.305 876 158.983 876 156.091C876 153.551 876.657 151.491 877.971 149.914C879.373 148.25 881.126 147.417 883.229 147.417C883.93 147.417 884.981 147.592 886.383 147.943C887.785 148.206 888.792 148.337 889.406 148.337C891.158 148.337 892.253 147.198 892.691 144.92C892.867 144.044 892.954 142.204 892.954 139.4V102.994C892.954 100.191 892.867 98.3943 892.691 97.6058C892.253 95.3277 891.158 94.1886 889.406 94.1886C888.705 94.1886 887.653 94.3639 886.251 94.7143C884.937 94.9772 883.886 95.1086 883.097 95.1086C881.082 95.1086 879.373 94.2762 877.971 92.6115C876.657 90.9467 876 88.8877 876 86.4343C876 80.0381 879.242 76.8401 885.726 76.8401C887.741 76.8401 890.983 77.0153 895.451 77.3658C902.198 77.8915 907.718 78.1543 912.011 78.1543C914.99 78.1543 918.32 78.1105 922 78.0229C924.453 77.9353 929.36 77.8477 936.72 77.7601C939.699 77.7601 943.335 77.6724 947.629 77.4972L955.514 76.8401C956.566 76.7524 957.004 76.7086 956.829 76.7086C961.21 76.7086 963.4 78.6362 963.4 82.4915C963.4 84.0686 963.225 85.821 962.874 87.7486C962.349 90.6401 962.086 93.0058 962.086 94.8458C962.086 96.2477 962.305 98.3067 962.743 101.023C963.269 103.739 963.531 105.798 963.531 107.2C963.531 110.267 962.611 112.764 960.771 114.691C958.931 116.619 956.522 117.583 953.543 117.583C950.564 117.583 948.198 116.619 946.446 114.691C944.781 112.764 943.949 110.179 943.949 106.937C943.949 105.973 944.124 104.309 944.474 101.943C944.737 100.191 944.869 98.8324 944.869 97.8686C944.869 94.8896 942.678 93.4001 938.297 93.4001H923.971C920.554 93.4001 918.364 93.8381 917.4 94.7143C916.524 95.5029 916.086 97.7372 916.086 101.417V107.594C916.086 110.311 917.269 111.669 919.634 111.669C923.314 111.669 925.154 110.398 925.154 107.857C925.154 107.594 925.067 106.762 924.891 105.36C924.891 105.097 924.891 104.747 924.891 104.309C924.804 103.871 924.76 103.564 924.76 103.389C924.76 99.9715 926.819 98.2629 930.937 98.2629C935.756 98.2629 938.166 100.541 938.166 105.097C938.166 105.973 938.078 107.375 937.903 109.303C937.728 111.231 937.64 113.728 937.64 116.794C937.64 118.547 937.815 121.219 938.166 124.811C938.516 128.316 938.691 130.945 938.691 132.697C938.691 138.042 936.413 140.714 931.857 140.714C927.213 140.714 924.891 138.261 924.891 133.354C924.891 133.179 924.935 132.916 925.023 132.566C925.023 132.303 925.023 132.084 925.023 131.909V130.463C925.023 128.272 923.358 127.177 920.029 127.177C918.364 127.177 917.269 127.396 916.743 127.834C916.305 128.272 916.086 129.236 916.086 130.726Z" fill="black"/>
<path d="M250.513 0.00362502C250.037 0.0154072 249.559 0.0483993 249.075 0.114379C241.33 1.16888 235.506 8.04966 231.093 19.4813C227.556 28.6431 224.714 41.3301 222.868 58.6569C203.97 45.6406 185.237 41.2529 166.639 43.4315L150.723 8.04789L135.988 50.0407L106.279 32.4776L105.799 69.6291L78.3205 70.66L85.715 88.6643C75.3851 98.235 65.0818 108.931 54.7886 120.384L0.015625 93.6535L26.4989 138.37L4.97637 161.401L26.3879 163.039L2.50485 198.313L66.278 160.077L117.951 185.131L88.5914 195.368L109.579 203.506L90.3624 216.596L121.142 217.165L118.432 244.762L153.434 202.328L204.537 227.103L281.883 128.614C279.599 124.708 277.318 120.971 275.041 117.365L204.592 206.303L201.807 209.818L197.806 207.811L171.636 194.721L176.579 184.873L198.727 195.954L268.68 107.664C256.784 90.2084 244.964 76.6825 233.216 66.6288C234.963 46.2928 238.002 32.2526 241.404 23.4395C245.157 13.7133 249.008 11.2414 250.551 11.0317C251.322 10.9269 252.103 11.0594 253.355 11.9331C254.604 12.8079 256.124 14.4621 257.486 16.7578C260.19 21.3193 262.21 28.282 262.335 35.4243C257.643 37.6128 254.405 42.3781 254.405 47.8881C254.405 55.4746 260.564 61.6219 268.163 61.6219C275.762 61.6219 281.92 55.4746 281.92 47.8881C281.92 42.1431 278.378 37.217 273.363 35.1675C273.196 26.1953 270.87 17.7181 266.982 11.1613C265.022 7.85348 262.647 4.98865 259.679 2.91382C257.454 1.3574 254.768 0.268725 251.933 0.0419184C251.461 0.00362646 250.989 -0.00697699 250.514 0.00421605L250.513 0.00362502ZM219.623 93.1745C221.48 93.1009 223.376 93.3136 225.266 93.819C227.068 94.3021 228.731 95.029 230.246 95.9545C230.163 95.9545 230.088 95.9368 230.006 95.9368C224.15 95.9368 219.401 99.8462 219.401 104.663C219.402 109.48 224.15 113.389 230.006 113.389C233.843 113.389 237.182 111.704 239.042 109.192C239.423 111.69 239.315 114.308 238.617 116.906C235.918 126.964 225.569 132.929 215.491 130.234C205.415 127.538 199.421 117.206 202.121 107.147C204.314 98.9749 211.576 93.4938 219.622 93.1745H219.623ZM163.338 99.7472L173.905 102.875L166.381 128.245L194.376 151.128L187.387 159.651L156.552 134.449L153.73 132.129L154.763 128.631L163.338 99.7472ZM136.818 114.879L147.404 118.009L142.167 135.644L161.899 151.771L154.91 160.296L132.337 141.849L129.497 139.53L130.548 136.013L136.818 114.879Z" fill="#EC0C23"/>
</svg>
