<svg width="301" height="301" viewBox="0 0 301 301" fill="none" xmlns="http://www.w3.org/2000/svg">
<path d="M285.005 141.504C285.005 216.615 224.116 277.504 149.005 277.504C73.8939 277.504 13.0046 216.615 13.0046 141.504C13.0046 66.3931 73.8939 5.50378 149.005 5.50378C224.116 5.50378 285.005 66.3931 285.005 141.504Z" fill="white"/>
<path d="M151.81 0.00536445C67.6551 -0.696969 -0.696968 67.6551 0.00536445 151.81C0.707698 233.531 67.4795 300.303 149.176 300.98C233.331 301.708 301.708 233.331 300.981 149.176C300.303 67.4796 233.532 0.707694 151.81 0.00536445ZM106.811 74.9042C116.443 87.1449 122.212 102.622 122.212 119.427C122.212 133.976 117.897 147.521 110.473 158.833H58.299L106.811 74.9042ZM265.889 177.42C265.889 178.122 265.513 178.724 264.861 179C261.324 180.505 249.66 185.923 244.794 192.671C232.277 210.104 222.721 237.495 201.35 237.495H112.178C80.5981 237.495 54.1854 212.436 54.2105 179.05C54.2105 178.223 54.9128 177.545 55.7405 177.545H98.006C99.4608 177.545 100.615 178.724 100.615 180.154V188.306C100.615 192.646 104.127 196.157 108.466 196.157H140.523V177.495H118.625C131.217 161.542 138.717 141.4 138.717 119.477C138.717 95.021 129.335 72.722 113.984 56.0415C123.265 57.1201 132.145 58.9763 140.523 61.4345V56.2422C140.523 50.8493 144.887 46.4848 150.28 46.4848C155.673 46.4848 160.037 50.8493 160.037 56.2422V68.7588C189.962 82.7302 209.552 105.907 209.552 132.119C209.552 147.496 202.83 161.818 191.216 173.858C188.984 176.166 185.898 177.47 182.663 177.47H160.037V196.107H188.432C194.552 196.107 205.539 184.493 210.756 177.495C210.756 177.495 210.982 177.144 211.584 176.968C212.186 176.793 263.732 164.954 263.732 164.954C264.81 164.653 265.889 165.48 265.889 166.584V177.42Z" fill="#0086FF"/>
</svg>
